<svg width="18" height="18" viewBox="0 0 18 18" fill="none" xmlns="http://www.w3.org/2000/svg">
<path d="M18 9C18 9.414 17.6647 9.75 17.25 9.75C16.8353 9.75 16.5 9.414 16.5 9C16.5 4.8645 13.1355 1.5 9 1.5C6.6345 1.5 4.41375 2.6325 3.00675 4.5H5.25C5.66475 4.5 6 4.836 6 5.25C6 5.664 5.66475 6 5.25 6H2.25C1.42275 6 0.75 5.32725 0.75 4.5V1.5C0.75 1.086 1.08525 0.75 1.5 0.75C1.91475 0.75 2.25 1.086 2.25 1.5V3.078C3.942 1.1565 6.393 0 9 0C13.9628 0 18 4.03725 18 9ZM15.75 12H12.75C12.3352 12 12 12.3352 12 12.75C12 13.1648 12.3352 13.5 12.75 13.5H14.9932C13.5855 15.3675 11.3655 16.5 9 16.5C4.8645 16.5 1.5 13.1355 1.5 9C1.5 8.586 1.16475 8.25 0.75 8.25C0.33525 8.25 0 8.586 0 9C0 13.9628 4.03725 18 9 18C11.607 18 14.058 16.8435 15.75 14.922V16.5C15.75 16.9147 16.0853 17.25 16.5 17.25C16.9147 17.25 17.25 16.9147 17.25 16.5V13.5C17.25 12.6727 16.5772 12 15.75 12ZM9.372 3.849C9.01125 3.64275 8.55375 3.76875 8.349 4.128C8.349 4.128 6.06825 8.1345 6.0525 8.1885C5.94225 8.55375 6.012 8.95425 6.23925 9.261C6.46725 9.56775 6.83025 9.75 7.212 9.75H10.2833L8.34975 13.1273C8.14425 13.4865 8.26875 13.9455 8.628 14.151C8.74575 14.2185 8.874 14.25 9 14.25C9.26025 14.25 9.51375 14.1143 9.65175 13.8727L11.7997 10.1168C12.0442 9.747 12.066 9.2745 11.856 8.883C11.6467 8.49225 11.241 8.24925 10.797 8.24925H7.722L9.651 4.87125C9.8565 4.51125 9.73125 4.05375 9.372 3.849Z" fill="#55B56C"/>
</svg>
