<svg width="18" height="18" viewBox="0 0 18 18" fill="none" xmlns="http://www.w3.org/2000/svg">
<path d="M15.8662 14.8057C17.2436 13.1848 17.9999 11.127 17.9999 8.99995C17.9999 6.87286 17.2436 4.81506 15.8662 3.1942L16.5112 2.5492C16.6518 2.40847 16.7308 2.21764 16.7307 2.01869C16.7307 1.81973 16.6516 1.62896 16.5108 1.48833C16.3701 1.3477 16.1793 1.26873 15.9803 1.2688C15.7814 1.26887 15.5906 1.34797 15.45 1.4887L14.805 2.1337C13.1841 0.756273 11.1263 0 8.9992 0C6.87211 0 4.81431 0.756273 3.19345 2.1337L2.54845 1.4887C2.4069 1.35218 2.2174 1.27672 2.02075 1.27856C1.8241 1.28041 1.63605 1.35942 1.49709 1.49857C1.35813 1.63773 1.27938 1.8259 1.27782 2.02255C1.27625 2.2192 1.35198 2.4086 1.4887 2.54995L2.1337 3.19495C0.756273 4.81581 0 6.87361 0 9.0007C0 11.1278 0.756273 13.1856 2.1337 14.8065L1.4887 15.4515C1.41712 15.5207 1.36004 15.6035 1.3208 15.695C1.28156 15.7865 1.26094 15.885 1.26015 15.9846C1.25936 16.0841 1.2784 16.1829 1.31618 16.275C1.35395 16.3672 1.4097 16.4509 1.48017 16.5212C1.55064 16.5916 1.63442 16.6472 1.72661 16.6849C1.81881 16.7225 1.91758 16.7414 2.01717 16.7405C2.11675 16.7396 2.21515 16.7188 2.30662 16.6794C2.3981 16.6401 2.48082 16.5829 2.54995 16.5112L3.19495 15.8662C4.81581 17.2436 6.87361 17.9999 9.0007 17.9999C11.1278 17.9999 13.1856 17.2436 14.8065 15.8662L15.4515 16.5112C15.593 16.6477 15.7825 16.7232 15.9792 16.7213C16.1758 16.7195 16.3639 16.6405 16.5028 16.5013C16.6418 16.3622 16.7205 16.174 16.7221 15.9774C16.7237 15.7807 16.6479 15.5913 16.5112 15.45L15.8662 14.8057ZM16.5 8.99995C16.5013 10.7298 15.9016 12.4064 14.8035 13.743L12.1252 11.0647C12.5326 10.4531 12.7499 9.73476 12.7499 8.99995C12.7499 8.26515 12.5326 7.54676 12.1252 6.9352L14.8035 4.25695C15.9016 5.59351 16.5013 7.2701 16.5 8.99995ZM6.74995 8.99995C6.74995 8.55494 6.88191 8.11993 7.12915 7.74992C7.37638 7.37991 7.72778 7.09152 8.13891 6.92122C8.55005 6.75093 9.00245 6.70637 9.4389 6.79319C9.87536 6.88 10.2763 7.09429 10.5909 7.40896C10.9056 7.72363 11.1199 8.12454 11.2067 8.561C11.2935 8.99746 11.249 9.44986 11.0787 9.86099C10.9084 10.2721 10.62 10.6235 10.25 10.8708C9.87997 11.118 9.44496 11.25 8.99995 11.25C8.40322 11.25 7.83092 11.0129 7.40896 10.5909C6.987 10.169 6.74995 9.59669 6.74995 8.99995ZM8.99995 1.49995C10.7298 1.49857 12.4064 2.09826 13.743 3.19645L11.0647 5.8747C10.4531 5.46735 9.73476 5.24999 8.99995 5.24999C8.26515 5.24999 7.54676 5.46735 6.9352 5.8747L4.25695 3.19645C5.59351 2.09826 7.2701 1.49857 8.99995 1.49995ZM1.49995 8.99995C1.49857 7.2701 2.09826 5.59351 3.19645 4.25695L5.8747 6.9352C5.46735 7.54676 5.24999 8.26515 5.24999 8.99995C5.24999 9.73476 5.46735 10.4531 5.8747 11.0647L3.19645 13.743C2.09826 12.4064 1.49857 10.7298 1.49995 8.99995ZM8.99995 16.5C7.2701 16.5013 5.59351 15.9016 4.25695 14.8035L6.9352 12.1252C7.54676 12.5326 8.26515 12.7499 8.99995 12.7499C9.73476 12.7499 10.4531 12.5326 11.0647 12.1252L13.743 14.8035C12.4064 15.9016 10.7298 16.5013 8.99995 16.5Z" fill="#55B56C"/>
</svg>
