<svg width="18" height="18" viewBox="0 0 18 18" fill="none" xmlns="http://www.w3.org/2000/svg">
<path d="M10.5 7.5C10.5 8.26425 10.269 8.973 9.876 9.5655L7.71975 7.40925C7.57875 7.26825 7.5 7.07775 7.5 6.879V3.82575C9.2115 4.173 10.5 5.68575 10.5 7.5ZM6 7.1895V3.82575C4.0875 4.21425 2.703 6.05775 3.05475 8.151C3.2985 9.6015 4.41975 10.8082 5.8515 11.145C6.954 11.4037 7.9965 11.1698 8.8155 10.6267L6.43875 8.25C6.1575 7.96875 6 7.587 6 7.1895ZM14.25 3.75H12.75C12.3352 3.75 12 4.086 12 4.5C12 4.914 12.3352 5.25 12.75 5.25H14.25C14.6648 5.25 15 4.914 15 4.5C15 4.086 14.6648 3.75 14.25 3.75ZM14.25 6.75H12.75C12.3352 6.75 12 7.086 12 7.5C12 7.914 12.3352 8.25 12.75 8.25H14.25C14.6648 8.25 15 7.914 15 7.5C15 7.086 14.6648 6.75 14.25 6.75ZM14.25 9.75H12.75C12.3352 9.75 12 10.086 12 10.5C12 10.914 12.3352 11.25 12.75 11.25H14.25C14.6648 11.25 15 10.914 15 10.5C15 10.086 14.6648 9.75 14.25 9.75ZM18 4.5V10.5C18 12.5677 16.3177 14.25 14.25 14.25H9.75V15.75H12.75C13.1648 15.75 13.5 16.086 13.5 16.5C13.5 16.914 13.1648 17.25 12.75 17.25H5.25C4.83525 17.25 4.5 16.914 4.5 16.5C4.5 16.086 4.83525 15.75 5.25 15.75H8.25V14.25H3.75C1.68225 14.25 0 12.5677 0 10.5V4.5C0 2.43225 1.68225 0.75 3.75 0.75H14.25C16.3177 0.75 18 2.43225 18 4.5ZM16.5 4.5C16.5 3.2595 15.4905 2.25 14.25 2.25H3.75C2.5095 2.25 1.5 3.2595 1.5 4.5V10.5C1.5 11.7405 2.5095 12.75 3.75 12.75H14.25C15.4905 12.75 16.5 11.7405 16.5 10.5V4.5Z" fill="#55B56C"/>
</svg>
