<svg width="14" height="14" viewBox="0 0 14 14" fill="none" xmlns="http://www.w3.org/2000/svg">
<g clip-path="url(#clip0_33_735)">
<path d="M6.41667 8.75C6.41667 9.072 6.15533 9.33333 5.83333 9.33333C5.51133 9.33333 5.25 9.072 5.25 8.75H5.09367C4.47067 8.75 3.89025 8.41517 3.57817 7.87558C3.41717 7.59675 3.51225 7.24033 3.79108 7.07875C4.06933 6.91717 4.42692 7.01225 4.58792 7.29167C4.69175 7.47133 4.886 7.58333 5.09367 7.58333H6.41667C6.73808 7.58333 7 7.322 7 7C7 6.7795 6.84192 6.59283 6.62433 6.55667L4.84983 6.26092C4.06758 6.13083 3.49942 5.46 3.49942 4.66667C3.49942 3.70183 4.28458 2.91667 5.24942 2.91667C5.24942 2.59467 5.51075 2.33333 5.83275 2.33333C6.15475 2.33333 6.41608 2.59467 6.41608 2.91667H6.57242C7.19542 2.91667 7.77583 3.2515 8.08792 3.79108C8.2495 4.06992 8.15383 4.42633 7.87558 4.58792C7.59558 4.7495 7.23975 4.65383 7.07817 4.375C6.97433 4.19533 6.78008 4.08333 6.57242 4.08333H5.24942C4.928 4.08333 4.66608 4.34467 4.66608 4.66667C4.66608 4.88717 4.82417 5.07383 5.04175 5.11L6.81625 5.40575C7.5985 5.53583 8.16667 6.20667 8.16667 7C8.16667 7.96483 7.3815 8.75 6.41667 8.75ZM5.31417 10.4714C2.94992 10.2101 1.16667 8.21625 1.16667 5.83333C1.16667 3.26025 3.26025 1.16667 5.83333 1.16667C6.56192 1.16667 7.25958 1.33 7.90708 1.65142C8.197 1.7955 8.54642 1.67708 8.68933 1.38833C8.83283 1.10017 8.715 0.749583 8.42683 0.606667C7.61658 0.204167 6.7445 0 5.83392 0C2.61683 0 0 2.61683 0 5.83333C0 8.81183 2.29425 11.3079 5.25058 11.6346C5.544 11.6346 5.79658 11.4141 5.82983 11.1154C5.86542 10.7952 5.63442 10.507 5.31417 10.4714ZM13.8291 10.6015C13.601 10.3734 13.2323 10.3734 13.0043 10.6015L11.0833 12.5224V0.583333C11.0833 0.261333 10.8226 0 10.5 0C10.1774 0 9.91667 0.261333 9.91667 0.583333V12.4641L7.99575 10.5432C7.76767 10.3151 7.399 10.3151 7.17092 10.5432C6.94283 10.7712 6.94283 11.1399 7.17092 11.368L9.29192 13.489C9.63317 13.8297 10.0817 14 10.5292 14C10.9766 14 11.4258 13.8297 11.767 13.4884L13.8291 11.4257C14.0572 11.1977 14.0572 10.829 13.8291 10.6015Z" fill="#202D59"/>
</g>
<defs>
<clipPath id="clip0_33_735">
<rect width="14" height="14" fill="white"/>
</clipPath>
</defs>
</svg>
