<svg width="25" height="25" viewBox="0 0 25 25" fill="none" xmlns="http://www.w3.org/2000/svg">
<g clip-path="url(#clip0_26_394)">
<path d="M24.9999 14.0625V18.1365C24.9999 22.3354 21.0801 24.2385 19.878 24.7219L19.2249 24.9844L18.5957 24.6698C17.4103 24.0771 13.5405 21.8531 13.5405 18.1365V14.0625C13.5405 13.1635 14.1145 12.3698 14.9687 12.0875L19.2697 10.6615L23.5718 12.0885C24.4249 12.3708 24.9989 13.1635 24.9989 14.0635L24.9999 14.0625ZM13.1947 23.1823C13.1947 23.1823 14.3853 24.2885 14.9489 24.7563C14.1562 24.9146 13.3384 25 12.4999 25C5.70511 25.0792 -0.1001 19.3083 -0.000100226 12.5C-0.000100226 5.60729 5.60719 0 12.4999 0C18.6582 0 23.7791 4.48125 24.802 10.3521C24.4218 10.1354 22.8582 9.53125 22.427 9.37604C22.4312 9.38958 22.4353 9.40208 22.427 9.37604H8.30407C7.9999 10.3687 7.8124 11.4187 7.8124 12.501C7.8124 13.5833 7.99886 14.6344 8.30198 15.626H11.4582V17.7094H9.13844C10.4614 20.3146 11.8947 21.9135 13.1947 23.1833V23.1823ZM15.2072 2.44583C16.1884 3.66354 17.3259 5.33021 18.1509 7.29167H21.5114C20.1478 4.93958 17.8916 3.16979 15.2082 2.44583H15.2072ZM9.14365 7.29167H15.8655C14.7999 5.11875 13.3499 3.41146 12.502 2.51354C11.6562 3.41146 10.2114 5.12187 9.14365 7.29167ZM3.49261 7.29167H6.85198C7.67178 5.33854 8.7999 3.67188 9.78011 2.45625C7.10303 3.18229 4.85511 4.94479 3.49261 7.29167ZM2.56136 15.625H6.14886C5.89261 14.6292 5.72907 13.5854 5.72907 12.5C5.72907 11.4146 5.89261 10.3708 6.14886 9.375H2.56344C2.25198 10.3625 2.08323 11.4115 2.08323 12.5C2.08323 13.5885 2.25303 14.6333 2.56136 15.625ZM9.77282 22.5354C8.79469 21.3208 7.66969 19.6573 6.85198 17.7083H3.47386C4.74573 19.9187 6.81344 21.6385 9.38532 22.4427C9.5124 22.4823 9.64365 22.5 9.77178 22.5354H9.77282Z" fill="white"/>
</g>
<defs>
<clipPath id="clip0_26_394">
<rect width="25" height="25" fill="white"/>
</clipPath>
</defs>
</svg>
