<svg width="16" height="16" viewBox="0 0 16 16" fill="none" xmlns="http://www.w3.org/2000/svg">
<path d="M16 5.33335V6.66668C15.2647 6.66668 14.6667 7.26468 14.6667 8.00002C14.6667 8.73535 15.2647 9.33335 16 9.33335V10.6667C14.5293 10.6667 13.3333 9.47068 13.3333 8.00002C13.3333 6.52935 14.5293 5.33335 16 5.33335ZM10.3333 5.33335C9.78133 5.33335 9.33333 5.78135 9.33333 6.33335C9.33333 6.88535 9.78133 7.33335 10.3333 7.33335C10.8853 7.33335 11.3333 6.88535 11.3333 6.33335C11.3333 5.78135 10.8853 5.33335 10.3333 5.33335ZM10.3333 8.66668C9.78133 8.66668 9.33333 9.11468 9.33333 9.66668C9.33333 10.2187 9.78133 10.6667 10.3333 10.6667C10.8853 10.6667 11.3333 10.2187 11.3333 9.66668C11.3333 9.11468 10.8853 8.66668 10.3333 8.66668ZM6.66667 2.66668V4.00002H3.846C3.35133 4.00002 2.876 4.18202 2.506 4.51468L0 6.69135V8.48668L3.39867 5.50468C3.522 5.39402 3.68067 5.33268 3.846 5.33268H6.66667V6.67602C6.20467 6.67935 5.738 6.83868 5.352 7.16335L3.538 8.90735L4.462 9.86802L6.24267 8.15468C6.494 7.94402 6.86867 7.95002 7.11267 8.16868C7.38533 8.41335 7.40867 8.83402 7.17 9.10002L4.7 11.784C4.57467 11.9207 4.39533 11.9993 4.21 11.9993H0V13.3327H4.20933C4.76733 13.3327 5.304 13.0973 5.68133 12.6867L6.66667 11.616V13.3327H16V11.9993H8V10.1667L8.15667 9.99602C8.892 9.17602 8.82267 7.91002 8.002 7.17535C8.002 7.17535 8.00067 7.17468 8 7.17402V3.99935H16V2.66602L6.66667 2.66668Z" fill="#4DA562"/>
</svg>
