<svg width="25" height="25" viewBox="0 0 25 25" fill="none" xmlns="http://www.w3.org/2000/svg">
<g clip-path="url(#clip0_26_345)">
<path d="M24.5641 14.9498L17.0112 22.8548C15.6526 24.2135 13.81 24.9766 11.8889 24.9766H10.4629C6.79602 24.9766 3.82294 22.0038 3.82294 18.3367C3.82294 16.5695 3.35764 14.8341 2.47433 13.3039L0.215752 9.39188C-0.130027 8.79308 -0.0482352 8.05982 0.375211 7.55433C1.08593 6.70397 2.44023 6.80689 3.00402 7.7822C6.29093 13.4755 2.48469 6.88249 6.22036 13.3532C3.64663 3.7482 3.6578 4.02994 3.74849 3.50901C3.74849 3.4568 3.81414 3.19663 3.90493 3.01504C4.64619 1.49244 6.85547 1.73107 7.28526 3.33346C7.41941 3.83427 9.52865 11.7067 9.65802 12.1897C9.65802 1.22116 9.65008 1.77574 9.67261 1.60708C9.79807 0.667026 10.6182 0.0290904 11.3759 0.0290904C12.425 -0.0220671 13.2798 0.811746 13.2798 1.83746V12.5016C16.3074 1.94109 16.0561 2.68159 16.2798 2.34049C16.7509 1.5941 17.8163 1.28087 18.6657 1.75698C19.3392 2.09511 19.765 2.96333 19.5384 3.81032L16.9016 13.6505V15.7898C16.9016 16.5072 17.7683 16.8663 18.2753 16.3593C20.7098 13.5409 20.4923 13.7855 20.6089 13.6766C21.8686 12.5092 23.5816 12.3375 24.1481 12.6208C25.0434 13.0057 25.3152 14.1988 24.5641 14.9498Z" fill="#F9CFAC"/>
<path d="M24.9027 13.4065L16.2698 22.3668C15.1848 23.3211 13.8422 23.9272 12.4166 24.1113C7.9233 24.6955 4.62778 21.3665 4.62778 17.5318C4.62778 15.7646 4.16248 14.0292 3.27917 12.499C0.232355 7.31727 0.409218 7.62104 0.375214 7.55429C0.771245 7.08049 1.41592 6.86449 2.03721 7.03517C2.38615 7.13095 2.58606 7.29025 2.81287 7.51707C4.52235 10.3803 6.22539 13.3532 6.22036 13.3532C6.6518 13.3532 6.96584 12.9439 6.85417 12.5271C4.45122 3.55953 4.56455 4.11688 4.581 3.7298C4.59483 3.1635 4.92582 2.56042 5.46582 2.24538C5.69238 2.11233 5.94369 2.04286 5.96432 2.04266C6.58606 2.19407 7.10769 2.67194 7.28526 3.33342C7.52178 4.21627 9.40234 11.2353 9.65803 12.1897C9.65803 0.831778 9.6459 1.75453 9.6862 1.517C9.73504 1.24511 9.84933 0.989224 9.98047 0.805721C10.1362 0.578505 10.3456 0.41286 10.3507 0.41286C11.5784 -0.533982 13.2798 0.363865 13.2798 1.83742V12.5015C16.2169 2.25654 16.0594 2.79548 16.0867 2.72476C16.5156 1.50266 18.1528 1.07479 19.1265 2.12063C19.1884 2.1907 19.4042 1.26368 16.0967 13.8013V15.9407C16.0967 16.5562 16.7837 17.1505 17.5771 16.8416C18.1102 16.634 18.4089 16.2045 18.8176 15.7314C20.6563 13.6032 20.4365 13.8535 20.5643 13.7192C21.0996 13.2014 21.7979 12.7988 22.5983 12.6137C22.9355 12.5365 23.4684 12.4683 23.7945 12.5181C24.2373 12.5863 24.6023 12.8539 24.8091 13.2123C24.8663 13.3081 24.9003 13.4014 24.9027 13.4065Z" fill="#FFE4CC"/>
<path d="M11.2677 22.9141C11.0454 22.9141 10.8653 22.7339 10.8653 22.5117C10.8653 19.2972 13.2644 16.5536 16.446 16.1298C16.667 16.1009 16.8687 16.2553 16.898 16.4756C16.9274 16.6959 16.7725 16.8983 16.5523 16.9276C13.769 17.2983 11.6701 19.699 11.6701 22.5117C11.6701 22.7339 11.4899 22.9141 11.2677 22.9141Z" fill="#F9CFAC"/>
</g>
<defs>
<clipPath id="clip0_26_345">
<rect width="25" height="25" fill="white"/>
</clipPath>
</defs>
</svg>
