<svg width="18" height="18" viewBox="0 0 18 18" fill="none" xmlns="http://www.w3.org/2000/svg">
<g clip-path="url(#clip0_33_445)">
<path d="M8.25 7.5V8.25C8.25 8.664 7.914 9 7.5 9H3.75C3.336 9 3 8.664 3 8.25V7.5C3 7.086 3.336 6.75 3.75 6.75H7.5C7.914 6.75 8.25 7.086 8.25 7.5ZM18 4.875V12.75C18 13.0177 17.8575 13.266 17.625 13.3995C17.3932 13.533 17.1075 13.533 16.8757 13.3995L15.2482 12.462L13.923 13.3688C13.794 13.4573 13.6462 13.5 13.5007 13.5C13.2615 13.5 13.026 13.386 12.8812 13.173C12.6472 12.8317 12.735 12.3652 13.077 12.1305L14.7908 10.9575C15.027 10.7948 15.339 10.782 15.588 10.9268L16.5 11.4517V4.875C16.5 3.01425 14.9858 1.5 13.125 1.5C11.4382 1.5 10.0522 2.718 9.80175 4.36125C10.6748 4.97175 11.25 5.98125 11.25 7.125V14.625C11.25 16.4858 9.73575 18 7.875 18H3.375C1.51425 18 0 16.4858 0 14.625V7.125C0 5.95725 0.59625 4.9275 1.5 4.3215V3.75C1.5 1.68225 3.18225 0 5.25 0H13.125C15.813 0 18 2.187 18 4.875ZM9.75 7.125C9.75 6.09075 8.90925 5.25 7.875 5.25H3.375C2.34075 5.25 1.5 6.09075 1.5 7.125V14.625C1.5 15.6593 2.34075 16.5 3.375 16.5H7.875C8.90925 16.5 9.75 15.6593 9.75 14.625V7.125ZM8.373 3.80025C8.57025 2.913 9.00075 2.1255 9.59925 1.5H5.25C4.0095 1.5 3 2.5095 3 3.75V3.78825C3.1245 3.774 3.24675 3.75 3.375 3.75H7.875C8.04525 3.75 8.2095 3.7755 8.373 3.80025ZM7.5 10.5H6.75C6.33525 10.5 6 10.8352 6 11.25C6 11.6648 6.33525 12 6.75 12H7.5C7.91475 12 8.25 11.6648 8.25 11.25C8.25 10.8352 7.91475 10.5 7.5 10.5ZM7.5 13.5H6.75C6.33525 13.5 6 13.8352 6 14.25C6 14.6648 6.33525 15 6.75 15H7.5C7.91475 15 8.25 14.6648 8.25 14.25C8.25 13.8352 7.91475 13.5 7.5 13.5ZM4.5 10.5H3.75C3.33525 10.5 3 10.8352 3 11.25C3 11.6648 3.33525 12 3.75 12H4.5C4.91475 12 5.25 11.6648 5.25 11.25C5.25 10.8352 4.91475 10.5 4.5 10.5ZM4.5 13.5H3.75C3.33525 13.5 3 13.8352 3 14.25C3 14.6648 3.33525 15 3.75 15H4.5C4.91475 15 5.25 14.6648 5.25 14.25C5.25 13.8352 4.91475 13.5 4.5 13.5Z" fill="#55B56C"/>
</g>
<defs>
<clipPath id="clip0_33_445">
<rect width="18" height="18" fill="white"/>
</clipPath>
</defs>
</svg>
