<svg width="60" height="55" viewBox="0 0 60 55" fill="none" xmlns="http://www.w3.org/2000/svg">
<g clip-path="url(#clip0_25_157)">
<path d="M47.9079 20.1483C47.9079 27.3778 45.1698 32.3217 42.1744 35.6278C38.7624 39.3983 34.9462 43.6456 26.156 44.2811H11.7793V32.2178H25.7639C29.6169 32.2178 32.7839 32.7739 35.3137 36.355C36.594 35.2856 37.7149 34.0572 38.891 32.7617C39.9753 31.5639 40.8451 30.25 41.5434 28.8567C39.7119 27.5978 37.6292 26.6322 36.4469 26.18C40.3734 23.9861 43.6751 20.5394 43.6751 14.3428C43.6751 10.4256 42.4194 7.37 39.9018 4.85833C36.7593 1.72333 31.816 0 25.525 0H-0.000222082V10.5783H23.718C28.8267 10.5783 31.6506 12.6133 31.6506 16.2189C31.6506 20.4539 28.2754 22.1772 22.9339 22.1772H11.7793H-0.00634766V54.8533H26.1499C40.3918 54.8533 47.62 45.7661 51.0136 41.965C55.3505 37.1006 59.9937 29.4739 59.9937 18.3272V16.5122H47.8956V20.1361L47.9079 20.1483Z" fill="white"/>
<path d="M53.7336 45.6194C52.3614 47.1778 50.4503 49.3289 47.9081 51.4617V54.9939H60.0062V36.7583C58.487 39.6672 56.5881 42.4233 54.2787 45.0022L53.7336 45.6194Z" fill="#55B56C"/>
<path d="M48.5084 3.97222C46.34 7.48611 46.8606 11.7272 49.6661 13.4506C52.4717 15.1739 56.5023 13.7194 58.6646 10.2056C60.8331 6.69167 60.3124 2.45056 57.5069 0.727223C54.7014 -0.99611 50.6707 0.458335 48.5084 3.97222Z" fill="#55B56C"/>
</g>
<defs>
<clipPath id="clip0_25_157">
<rect width="60" height="55" fill="white"/>
</clipPath>
</defs>
</svg>
