<svg width="36" height="33" viewBox="0 0 36 33" fill="none" xmlns="http://www.w3.org/2000/svg">
<g clip-path="url(#clip0_26_323)">
<path d="M28.7446 12.089C28.7446 16.4267 27.1017 19.393 25.3044 21.3767C23.2573 23.639 20.9675 26.1873 15.6934 26.5687H7.06737V19.3307H15.4582C17.77 19.3307 19.6701 19.6643 21.188 21.813C21.9562 21.1713 22.6288 20.4343 23.3344 19.657C23.985 18.9383 24.5069 18.15 24.9259 17.314C23.8269 16.5587 22.5773 15.9793 21.868 15.708C24.2239 14.3917 26.2049 12.3237 26.2049 8.60567C26.2049 6.25533 25.4514 4.422 23.9409 2.915C22.0554 1.034 19.0894 0 15.3148 0H-0.000322458V6.347H14.2306C17.2959 6.347 18.9902 7.568 18.9902 9.73133C18.9902 12.2723 16.9651 13.3063 13.7602 13.3063H7.06737H-0.0039978V32.912H15.6897C24.2349 32.912 28.5718 27.4597 30.608 25.179C33.2101 22.2603 35.996 17.6843 35.996 10.9963V9.90733H28.7372V12.0817L28.7446 12.089Z" fill="#202D59"/>
<path d="M32.2401 27.3717C31.4168 28.3067 30.2701 29.5974 28.7449 30.8771V32.9964H36.0037V22.0551C35.0922 23.8004 33.9528 25.4541 32.5672 27.0014L32.2401 27.3717Z" fill="#55B56C"/>
<path d="M29.105 2.38334C27.804 4.49167 28.1164 7.03634 29.7997 8.07034C31.483 9.10434 33.9014 8.23167 35.1988 6.12334C36.4998 4.01501 36.1874 1.47034 34.5041 0.43634C32.8208 -0.59766 30.4024 0.275007 29.105 2.38334Z" fill="#55B56C"/>
</g>
<defs>
<clipPath id="clip0_26_323">
<rect width="36" height="33" fill="white"/>
</clipPath>
</defs>
</svg>
