<svg width="512" height="512" viewBox="0 0 512 512" fill="none" xmlns="http://www.w3.org/2000/svg">
<path d="M244.821 320C239.163 320 233.737 322.248 229.736 326.248C225.736 330.249 223.488 335.675 223.488 341.333V405.333C223.488 422.307 216.745 438.586 204.743 450.588C192.741 462.591 176.462 469.333 159.488 469.333H106.667C89.6928 469.333 73.4142 462.591 61.4118 450.588C49.4095 438.586 42.6667 422.307 42.6667 405.333V106.667C42.6667 89.6928 49.4095 73.4142 61.4118 61.4118C73.4142 49.4095 89.6928 42.6667 106.667 42.6667H159.488C176.462 42.6667 192.741 49.4095 204.743 61.4118C216.745 73.4142 223.488 89.6928 223.488 106.667V170.667C223.488 176.325 225.736 181.751 229.736 185.752C233.737 189.752 239.163 192 244.821 192C250.479 192 255.906 189.752 259.906 185.752C263.907 181.751 266.155 176.325 266.155 170.667V106.667C266.121 78.3873 254.872 51.2759 234.875 31.2794C214.879 11.2828 187.767 0.0338743 159.488 0H106.667C78.3873 0.0338743 51.2759 11.2828 31.2794 31.2794C11.2828 51.2759 0.0338743 78.3873 0 106.667L0 405.333C0.0338743 433.613 11.2828 460.724 31.2794 480.721C51.2759 500.717 78.3873 511.966 106.667 512H159.488C187.767 511.966 214.879 500.717 234.875 480.721C254.872 460.724 266.121 433.613 266.155 405.333V341.333C266.155 335.675 263.907 330.249 259.906 326.248C255.906 322.248 250.479 320 244.821 320Z" fill="white"/>
<path d="M487.829 210.752L389.995 112.917C388.027 110.88 385.673 109.255 383.07 108.136C380.467 107.018 377.668 106.43 374.835 106.405C372.003 106.381 369.193 106.92 366.572 107.993C363.95 109.066 361.568 110.65 359.565 112.653C357.562 114.656 355.978 117.038 354.905 119.66C353.833 122.281 353.293 125.091 353.317 127.923C353.342 130.756 353.93 133.555 355.049 136.158C356.167 138.761 357.792 141.115 359.829 143.083L450.752 234.027L128 234.667C122.342 234.667 116.916 236.914 112.915 240.915C108.914 244.916 106.667 250.342 106.667 256C106.667 261.658 108.914 267.084 112.915 271.085C116.916 275.086 122.342 277.333 128 277.333L452.011 276.672L359.787 368.917C357.749 370.885 356.124 373.239 355.006 375.842C353.888 378.445 353.299 381.244 353.275 384.077C353.25 386.909 353.79 389.719 354.862 392.34C355.935 394.962 357.519 397.344 359.522 399.347C361.525 401.35 363.907 402.934 366.529 404.007C369.151 405.08 371.96 405.619 374.793 405.595C377.625 405.57 380.425 404.982 383.027 403.863C385.63 402.745 387.984 401.12 389.952 399.083L487.787 301.248C499.791 289.252 506.538 272.979 506.546 256.009C506.554 239.038 499.822 222.759 487.829 210.752Z" fill="white"/>
</svg>
