<svg width="18" height="18" viewBox="0 0 18 18" fill="none" xmlns="http://www.w3.org/2000/svg">
<path d="M16.9269 10.2465L15.5019 5.11951C15.0842 3.61751 14.1764 2.29823 12.9229 1.37136C11.6693 0.444502 10.1419 -0.0367482 8.58346 0.00411186C7.025 0.0449719 5.52491 0.605597 4.32165 1.59687C3.11839 2.58815 2.28101 3.95319 1.94261 5.47501L0.839357 10.4363C0.717493 10.9845 0.720311 11.553 0.847601 12.1C0.974892 12.647 1.2234 13.1584 1.57479 13.5964C1.92618 14.0345 2.37147 14.388 2.87779 14.631C3.38411 14.8739 3.93852 15 4.50011 15H5.33561C5.50774 15.8477 5.96765 16.6099 6.63741 17.1573C7.30717 17.7047 8.14559 18.0038 9.01061 18.0038C9.87562 18.0038 10.714 17.7047 11.3838 17.1573C12.0536 16.6099 12.5135 15.8477 12.6856 15H13.3141C13.8922 15.0001 14.4625 14.8664 14.9804 14.6096C15.4983 14.3527 15.9499 13.9796 16.2997 13.5194C16.6496 13.0592 16.8883 12.5243 16.9972 11.9565C17.1061 11.3888 17.0816 10.8035 16.9269 10.2465ZM9.01061 16.5C8.54691 16.4981 8.09513 16.3529 7.71708 16.0844C7.33903 15.8159 7.05317 15.4372 6.89861 15H11.1226C10.968 15.4372 10.6822 15.8159 10.3041 16.0844C9.92608 16.3529 9.4743 16.4981 9.01061 16.5ZM15.1051 12.6113C14.8961 12.8885 14.6253 13.1132 14.3143 13.2675C14.0033 13.4218 13.6605 13.5014 13.3134 13.5H4.50011C4.1632 13.5 3.8306 13.4242 3.52686 13.2784C3.22313 13.1327 2.95601 12.9205 2.74523 12.6577C2.53444 12.3949 2.38538 12.088 2.30903 11.7599C2.23268 11.4317 2.231 11.0906 2.30411 10.7618L3.40661 5.79976C3.67237 4.60442 4.33009 3.53221 5.2752 2.7536C6.22031 1.97498 7.39858 1.53464 8.62269 1.50257C9.8468 1.4705 11.0465 1.84855 12.0311 2.57661C13.0157 3.30468 13.7286 4.34097 14.0566 5.52076L15.4816 10.6478C15.5758 10.9818 15.5908 11.3332 15.5254 11.674C15.4601 12.0148 15.3161 12.3358 15.1051 12.6113Z" fill="#202D59"/>
</svg>
