<svg width="16" height="18" viewBox="0 0 16 18" fill="none" xmlns="http://www.w3.org/2000/svg">
<path d="M13.9625 4.15198L11.3488 1.53823C10.3573 0.546733 9.03875 0.000732673 7.63625 0.000732673H4.25C2.18225 -1.73275e-05 0.5 1.68223 0.5 3.74998V14.25C0.5 16.3177 2.18225 18 4.25 18H11.75C13.8178 18 15.5 16.3177 15.5 14.25V7.86373C15.5 6.46123 14.954 5.14423 13.9625 4.15198ZM12.902 5.21248C13.1405 5.45098 13.3423 5.71573 13.5058 5.99998H10.25C9.83675 5.99998 9.5 5.66323 9.5 5.24998V1.99423C9.78425 2.15773 10.0498 2.35948 10.2875 2.59798L12.9013 5.21173L12.902 5.21248ZM14 14.25C14 15.4905 12.9905 16.5 11.75 16.5H4.25C3.0095 16.5 2 15.4905 2 14.25V3.74998C2 2.50948 3.0095 1.49998 4.25 1.49998H7.63625C7.7585 1.49998 7.88 1.50598 8 1.51723V5.24998C8 6.49048 9.0095 7.49998 10.25 7.49998H13.9828C13.994 7.61998 14 7.74148 14 7.86373V14.25ZM10.625 9.74998H5.375C4.3415 9.74998 3.5 10.5915 3.5 11.625V13.125C3.5 14.1585 4.3415 15 5.375 15H10.625C11.6585 15 12.5 14.1585 12.5 13.125V11.625C12.5 10.5915 11.6585 9.74998 10.625 9.74998ZM11 13.125C11 13.332 10.832 13.5 10.625 13.5H5.375C5.168 13.5 5 13.332 5 13.125V11.625C5 11.418 5.168 11.25 5.375 11.25H10.625C10.832 11.25 11 11.418 11 11.625V13.125ZM3.5 7.49998C3.5 7.08598 3.836 6.74998 4.25 6.74998H5.75C6.164 6.74998 6.5 7.08598 6.5 7.49998C6.5 7.91398 6.164 8.24998 5.75 8.24998H4.25C3.836 8.24998 3.5 7.91398 3.5 7.49998ZM3.5 4.49998C3.5 4.08598 3.836 3.74998 4.25 3.74998H5.75C6.164 3.74998 6.5 4.08598 6.5 4.49998C6.5 4.91398 6.164 5.24998 5.75 5.24998H4.25C3.836 5.24998 3.5 4.91398 3.5 4.49998Z" fill="white"/>
</svg>
