<svg width="16" height="16" viewBox="0 0 16 16" fill="none" xmlns="http://www.w3.org/2000/svg">
<path d="M8.00001 16C6.41775 16 4.87104 15.5308 3.55544 14.6518C2.23985 13.7727 1.21447 12.5233 0.608967 11.0615C0.00346629 9.59966 -0.15496 7.99112 0.153721 6.43927C0.462403 4.88743 1.22433 3.46196 2.34315 2.34314C3.46197 1.22432 4.88743 0.462396 6.43928 0.153713C7.99113 -0.154968 9.59966 0.00345802 11.0615 0.60896C12.5233 1.21446 13.7727 2.23984 14.6518 3.55543C15.5308 4.87103 16 6.41775 16 8C15.9977 10.121 15.1541 12.1545 13.6543 13.6543C12.1545 15.1541 10.121 15.9977 8.00001 16ZM11.3333 7.33333H8.66667V4.66666H7.33334V7.33333H4.66667V8.66666H7.33334V11.3333H8.66667V8.66666H11.3333V7.33333Z" fill="#55B56C"/>
</svg>
