<svg width="18" height="18" viewBox="0 0 18 18" fill="none" xmlns="http://www.w3.org/2000/svg">
<g clip-path="url(#clip0_33_447)">
<path d="M15 12C15 12.621 14.496 13.125 13.875 13.125C13.254 13.125 12.75 12.621 12.75 12C12.75 11.379 13.254 10.875 13.875 10.875C14.496 10.875 15 11.379 15 12ZM17.25 6C16.8353 6 16.5 6.336 16.5 6.75V15.75C16.5 16.1633 16.164 16.5 15.75 16.5H3.75C2.5095 16.5 1.5 15.4905 1.5 14.25V6.75V6.74625C2.1405 7.22625 2.92725 7.5 3.74925 7.5H11.2492C11.664 7.5 11.9992 7.164 11.9992 6.75C11.9992 6.336 11.664 6 11.2492 6H3.75C3.108 6 2.51025 5.71425 2.08725 5.247C2.499 4.79175 3.0885 4.5 3.75 4.5H9C9.41475 4.5 9.75 4.164 9.75 3.75C9.75 3.336 9.41475 3 9 3H3.75C1.5 3 0 4.875 0 6.75V14.25C0 16.3178 1.68225 18 3.75 18H15.75C16.9905 18 18 16.9905 18 15.75V6.75C18 6.336 17.6647 6 17.25 6ZM12.5272 3.15825L13.5 2.1975V6.75C13.5 7.164 13.8352 7.5 14.25 7.5C14.6648 7.5 15 7.164 15 6.75V2.211L15.9772 3.162C16.1227 3.30375 16.311 3.375 16.5 3.375C16.6957 3.375 16.8907 3.29925 17.0378 3.1485C17.3265 2.8515 17.3205 2.37675 17.0228 2.088L15.3525 0.462002C14.7367 -0.152248 13.7385 -0.151498 13.125 0.459002L11.472 2.09175C11.1772 2.38275 11.175 2.8575 11.4653 3.15225C11.7577 3.44775 12.231 3.44925 12.5265 3.159L12.5272 3.15825Z" fill="#55B56C"/>
</g>
<defs>
<clipPath id="clip0_33_447">
<rect width="18" height="18" fill="white"/>
</clipPath>
</defs>
</svg>
