<svg width="512" height="512" viewBox="0 0 512 512" fill="none" xmlns="http://www.w3.org/2000/svg">
<g clip-path="url(#clip0_10_116)">
<path d="M451.305 421.14C490.486 375.035 511.997 316.503 511.997 255.999C511.997 195.495 490.486 136.962 451.305 90.8573L469.652 72.5106C473.652 68.5076 475.898 63.0795 475.896 57.4204C475.894 51.7613 473.644 46.3348 469.641 42.3347C465.638 38.3345 460.21 36.0883 454.551 36.0903C448.892 36.0923 443.466 38.3423 439.465 42.3453L421.119 60.692C375.014 21.5118 316.481 0 255.977 0C195.473 0 136.94 21.5118 90.836 60.692L72.4893 42.3453C68.4631 38.462 63.0727 36.3155 57.4791 36.368C51.8856 36.4205 46.5364 38.6679 42.5838 42.6261C38.6312 46.5843 36.3914 51.9366 36.3468 57.5303C36.3022 63.1239 38.4563 68.5112 42.3453 72.532L60.692 90.8787C21.5118 136.983 0 195.516 0 256.02C0 316.524 21.5118 375.057 60.692 421.161L42.3453 439.508C40.3092 441.477 38.6857 443.833 37.5695 446.436C36.4533 449.04 35.8668 451.839 35.8442 454.672C35.8217 457.505 36.3634 460.313 37.4379 462.934C38.5125 465.555 40.0982 467.936 42.1026 469.938C44.1071 471.939 46.4901 473.522 49.1126 474.593C51.7351 475.663 54.5446 476.201 57.3772 476.175C60.2098 476.148 63.0087 475.557 65.6107 474.438C68.2126 473.318 70.5655 471.691 72.532 469.652L90.8787 451.305C136.983 490.486 195.516 511.997 256.02 511.997C316.524 511.997 375.057 490.486 421.161 451.305L439.508 469.652C443.534 473.535 448.925 475.682 454.518 475.629C460.112 475.577 465.461 473.329 469.414 469.371C473.366 465.413 475.606 460.061 475.651 454.467C475.695 448.873 473.541 443.486 469.652 439.465L451.305 421.14ZM469.332 255.999C469.371 305.203 452.313 352.893 421.076 390.911L344.895 314.729C356.482 297.334 362.664 276.9 362.664 255.999C362.664 235.098 356.482 214.663 344.895 197.268L421.076 121.087C452.313 159.104 469.371 206.794 469.332 255.999ZM191.999 255.999C191.999 243.341 195.752 230.967 202.785 220.442C209.817 209.917 219.812 201.714 231.507 196.87C243.201 192.026 256.07 190.759 268.484 193.228C280.899 195.698 292.303 201.793 301.254 210.744C310.204 219.694 316.299 231.098 318.769 243.513C321.238 255.928 319.971 268.796 315.127 280.49C310.283 292.185 302.08 302.18 291.555 309.213C281.03 316.245 268.657 319.999 255.999 319.999C239.025 319.999 222.746 313.256 210.744 301.254C198.741 289.251 191.999 272.973 191.999 255.999ZM255.999 42.6653C305.203 42.6261 352.893 59.684 390.911 90.9213L314.729 167.103C297.334 155.516 276.9 149.333 255.999 149.333C235.098 149.333 214.663 155.516 197.268 167.103L121.087 90.9213C159.104 59.684 206.794 42.6261 255.999 42.6653ZM42.6653 255.999C42.6261 206.794 59.684 159.104 90.9213 121.087L167.103 197.268C155.516 214.663 149.333 235.098 149.333 255.999C149.333 276.9 155.516 297.334 167.103 314.729L90.9213 390.911C59.684 352.893 42.6261 305.203 42.6653 255.999ZM255.999 469.332C206.794 469.371 159.104 452.313 121.087 421.076L197.268 344.895C214.663 356.482 235.098 362.664 255.999 362.664C276.9 362.664 297.334 356.482 314.729 344.895L390.911 421.076C352.893 452.313 305.203 469.371 255.999 469.332Z" fill="white"/>
</g>
<defs>
<clipPath id="clip0_10_116">
<rect width="512" height="512" fill="white"/>
</clipPath>
</defs>
</svg>
