<svg width="18" height="18" viewBox="0 0 18 18" fill="none" xmlns="http://www.w3.org/2000/svg">
<g clip-path="url(#clip0_33_451)">
<path d="M15.75 16.1251V18.0001H14.25V16.1251C14.25 15.1313 13.4707 14.3236 12.492 14.2621L10.5 17.2501L9 15.0001L7.5 17.2501L5.508 14.2621C4.52925 14.3236 3.75 15.1313 3.75 16.1251V18.0001H2.25V16.1251C2.25 14.2643 3.76425 12.7501 5.625 12.7501H12.375C14.2357 12.7501 15.75 14.2643 15.75 16.1251ZM9.618 4.5713C10.5592 4.78805 11.3265 5.5493 11.5492 6.48905C11.7 7.1243 11.6175 7.7333 11.3707 8.25005H12.3502C12.726 8.25005 13.0545 7.97405 13.098 7.60055C13.149 7.1603 13.1302 6.69905 13.0297 6.2273C12.6967 4.66805 11.4315 3.4103 9.87 3.0893C7.21725 2.54405 4.87575 4.5668 4.87575 7.12505C4.87575 8.2268 5.31 9.2288 6.01575 9.96905C6.04575 9.33305 6.27525 8.7488 6.64275 8.27705C6.47175 7.92905 6.37575 7.53755 6.37575 7.1243C6.37575 5.47505 7.90425 4.17605 9.61875 4.57055L9.618 4.5713ZM5.15325 3.02105C6.3 1.9463 7.8015 1.4153 9.37575 1.5128C12.3187 1.7033 14.625 4.26455 14.625 7.3433C14.625 8.6708 13.5457 9.75005 12.2182 9.75005H10.4137C10.2307 9.1283 9.66225 8.6708 8.98125 8.6708C8.1525 8.6708 7.48125 9.34205 7.48125 10.1708C7.48125 10.9996 8.1525 11.6708 8.98125 11.6708C9.38475 11.6708 9.75 11.5096 10.0192 11.2501H12.2182C14.3722 11.2501 16.125 9.4973 16.125 7.3433C16.125 3.47555 13.203 0.256554 9.4725 0.0158043C7.4745 -0.113946 5.57925 0.564804 4.128 1.9268C2.78775 3.18305 1.98225 4.9238 1.8855 6.7508H3.38775C3.48 5.32355 4.09875 4.0103 5.154 3.02105H5.15325Z" fill="#55B56C"/>
</g>
<defs>
<clipPath id="clip0_33_451">
<rect width="18" height="18" fill="white"/>
</clipPath>
</defs>
</svg>
