<svg width="14" height="18" viewBox="0 0 14 18" fill="none" xmlns="http://www.w3.org/2000/svg">
<path d="M10 0H4C3.0058 0.00119089 2.05267 0.396661 1.34966 1.09966C0.646661 1.80267 0.251191 2.7558 0.25 3.75V17.25C0.250106 17.3864 0.287415 17.5202 0.357911 17.637C0.428408 17.7538 0.529421 17.8491 0.650078 17.9128C0.770735 17.9764 0.906466 18.006 1.04266 17.9982C1.17885 17.9904 1.31035 17.9457 1.423 17.8688L3.0025 16.7895L4.582 17.8688C4.70679 17.9542 4.8545 17.9999 5.00575 17.9999C5.157 17.9999 5.30471 17.9542 5.4295 17.8688L7.0045 16.7895L8.5795 17.8688C8.70437 17.9544 8.85222 18.0002 9.00362 18.0002C9.15503 18.0002 9.30288 17.9544 9.42775 17.8688L11.0028 16.7902L12.5778 17.868C12.6903 17.9447 12.8217 17.9893 12.9577 17.997C13.0937 18.0046 13.2293 17.9751 13.3498 17.9116C13.4703 17.8481 13.5712 17.7529 13.6417 17.6364C13.7122 17.5198 13.7497 17.3862 13.75 17.25V3.75C13.7488 2.7558 13.3533 1.80267 12.6503 1.09966C11.9473 0.396661 10.9942 0.00119089 10 0ZM12.25 15.825L11.425 15.261C11.3001 15.1752 11.1521 15.1293 11.0005 15.1293C10.8489 15.1293 10.7009 15.1752 10.576 15.261L9.001 16.3403L7.426 15.261C7.30113 15.1754 7.15328 15.1296 7.00187 15.1296C6.85047 15.1296 6.70262 15.1754 6.57775 15.261L5.00275 16.3403L3.42775 15.261C3.30303 15.1757 3.15547 15.1301 3.00437 15.1301C2.85328 15.1301 2.70572 15.1757 2.581 15.261L1.75 15.825V3.75C1.75 3.15326 1.98705 2.58097 2.40901 2.15901C2.83097 1.73705 3.40326 1.5 4 1.5H10C10.5967 1.5 11.169 1.73705 11.591 2.15901C12.0129 2.58097 12.25 3.15326 12.25 3.75V15.825Z" fill="white"/>
</svg>
