<?xml version="1.0"?>
<svg xmlns="http://www.w3.org/2000/svg" width="512" height="512" viewBox="0 0 512 512" fill="none" style="background-color:transparent;">
  <rect width="512" height="512" fill="none"/>
  <g clip-path="url(#clip0_0_1)">
    <path d="M341.333 0H170.667C142.387 0.0338743 115.276 11.2828 95.2794 31.2794C75.2828 51.2759 64.0339 78.3873 64 106.667V490.667C64.003 494.547 65.0642 498.353 67.0695 501.675C69.0747 504.997 71.948 507.709 75.38 509.519C78.812 511.33 82.6728 512.17 86.5468 511.949C90.4207 511.728 94.1611 510.455 97.3653 508.267L142.293 477.568L187.221 508.267C190.771 510.697 194.973 511.998 199.275 511.998C203.577 511.998 207.778 510.697 211.328 508.267L256.128 477.568L300.928 508.267C304.48 510.702 308.685 512.005 312.992 512.005C317.299 512.005 321.504 510.702 325.056 508.267L369.856 477.589L414.656 508.245C417.859 510.427 421.595 511.695 425.464 511.914C429.332 512.132 433.188 511.293 436.616 509.486C440.043 507.679 442.914 504.972 444.92 501.656C446.926 498.341 447.99 494.542 448 490.667V106.667C447.966 78.3873 436.717 51.2759 416.721 31.2794C396.724 11.2828 369.613 0.0338743 341.333 0ZM405.333 450.133L381.867 434.091C378.313 431.651 374.103 430.345 369.792 430.345C365.481 430.345 361.271 431.651 357.717 434.091L312.917 464.789L268.117 434.091C264.566 431.655 260.36 430.352 256.053 430.352C251.747 430.352 247.541 431.655 243.989 434.091L199.189 464.789L154.389 434.091C150.842 431.665 146.644 430.367 142.347 430.367C138.049 430.367 133.851 431.665 130.304 434.091L106.667 450.133V106.667C106.667 89.6928 113.41 73.4142 125.412 61.4118C137.414 49.4095 153.693 42.6667 170.667 42.6667H341.333C358.307 42.6667 374.586 49.4095 386.588 61.4118C398.591 73.4142 405.333 89.6928 405.333 106.667V450.133Z" fill="#55B56C"/>
    <path d="M341.333 170.667H170.667C158.885 170.667 149.333 180.218 149.333 192C149.333 203.782 158.885 213.333 170.667 213.333H341.333C353.115 213.333 362.667 203.782 362.667 192C362.667 180.218 353.115 170.667 341.333 170.667Z" fill="#55B56C"/>
    <path d="M298.667 256H170.667C158.885 256 149.333 265.551 149.333 277.333C149.333 289.115 158.885 298.667 170.667 298.667H298.667C310.449 298.667 320 289.115 320 277.333C320 265.551 310.449 256 298.667 256Z" fill="#55B56C"/>
  </g>
  <defs>
    <clipPath id="clip0_0_1">
      <rect width="512" height="512" fill="none"/>
    </clipPath>
  </defs>
</svg>
