<svg width="18" height="18" viewBox="0 0 18 18" fill="none" xmlns="http://www.w3.org/2000/svg">
<path d="M4.875 12H0.75C0.336 12 0 11.664 0 11.25C0 10.836 0.336 10.5 0.75 10.5H4.47375L5.751 8.58375C5.89875 8.36175 6.1575 8.229 6.4215 8.2515C6.6885 8.268 6.92625 8.4255 7.04625 8.66475L8.718 12.009L9.501 10.8345C9.6405 10.626 9.8745 10.5008 10.125 10.5008H13.5C13.914 10.5008 14.25 10.8368 14.25 11.2508C14.25 11.6648 13.914 12.0007 13.5 12.0007H10.5263L9.249 13.917C9.1095 14.1263 8.87475 14.2507 8.625 14.2507C8.60925 14.2507 8.5935 14.2508 8.5785 14.2493C8.3115 14.2327 8.07375 14.0752 7.95375 13.836L6.282 10.4918L5.499 11.6663C5.3595 11.8748 5.1255 12 4.875 12ZM16.5 7.86375V14.25C16.5 16.3177 14.8178 18 12.75 18H5.25C3.18225 18 1.5 16.3177 1.5 14.25C1.5 13.836 1.836 13.5 2.25 13.5C2.664 13.5 3 13.836 3 14.25C3 15.4905 4.0095 16.5 5.25 16.5H12.75C13.9905 16.5 15 15.4905 15 14.25V7.86375C15 7.7415 14.994 7.62 14.9828 7.5H11.25C10.0095 7.5 9 6.4905 9 5.25V1.51725C8.88 1.506 8.7585 1.5 8.63625 1.5H5.25C4.0095 1.5 3 2.5095 3 3.75V8.25C3 8.664 2.664 9 2.25 9C1.836 9 1.5 8.664 1.5 8.25V3.75C1.5 1.68225 3.18225 0 5.25 0H8.63625C10.0388 0 11.3565 0.546 12.3488 1.5375L14.9625 4.15125C15.954 5.14275 16.5 6.46125 16.5 7.86375ZM14.5058 6C14.3423 5.71575 14.1405 5.45025 13.902 5.2125L11.2883 2.59875C11.0498 2.36025 10.785 2.1585 10.5008 1.995V5.25075C10.5008 5.664 10.8375 6.00075 11.2508 6.00075H14.5065L14.5058 6Z" fill="#55B56C"/>
</svg>
